{
	"patcher" : 	{
		"fileversion" : 1,
		"appversion" : 		{
			"major" : 8,
			"minor" : 1,
			"revision" : 5,
			"architecture" : "x64",
			"modernui" : 1
		}
,
		"classnamespace" : "box",
		"rect" : [ 42.0, 85.0, 1044.0, 750.0 ],
		"bglocked" : 0,
		"openinpresentation" : 1,
		"default_fontsize" : 12.0,
		"default_fontface" : 0,
		"default_fontname" : "Arial",
		"gridonopen" : 1,
		"gridsize" : [ 15.0, 15.0 ],
		"gridsnaponopen" : 1,
		"objectsnaponopen" : 1,
		"statusbarvisible" : 2,
		"toolbarvisible" : 1,
		"lefttoolbarpinned" : 0,
		"toptoolbarpinned" : 0,
		"righttoolbarpinned" : 0,
		"bottomtoolbarpinned" : 0,
		"toolbars_unpinned_last_save" : 0,
		"tallnewobj" : 0,
		"boxanimatetime" : 200,
		"enablehscroll" : 1,
		"enablevscroll" : 1,
		"devicewidth" : 0.0,
		"description" : "",
		"digest" : "",
		"tags" : "",
		"style" : "",
		"subpatcher_template" : "",
		"assistshowspatchername" : 0,
		"boxes" : [ 			{
				"box" : 				{
					"comment" : "",
					"id" : "obj-2",
					"index" : 0,
					"maxclass" : "inlet",
					"numinlets" : 0,
					"numoutlets" : 1,
					"outlettype" : [ "" ],
					"patching_rect" : [ 644.0, 0.0, 48.0, 48.0 ]
				}

			}
, 			{
				"box" : 				{
					"id" : "obj-76",
					"maxclass" : "newobj",
					"numinlets" : 1,
					"numoutlets" : 1,
					"outlettype" : [ "" ],
					"patcher" : 					{
						"fileversion" : 1,
						"appversion" : 						{
							"major" : 8,
							"minor" : 1,
							"revision" : 5,
							"architecture" : "x64",
							"modernui" : 1
						}
,
						"classnamespace" : "box",
						"rect" : [ 59.0, 107.0, 640.0, 480.0 ],
						"bglocked" : 0,
						"openinpresentation" : 0,
						"default_fontsize" : 12.0,
						"default_fontface" : 0,
						"default_fontname" : "Arial",
						"gridonopen" : 1,
						"gridsize" : [ 15.0, 15.0 ],
						"gridsnaponopen" : 1,
						"objectsnaponopen" : 1,
						"statusbarvisible" : 2,
						"toolbarvisible" : 1,
						"lefttoolbarpinned" : 0,
						"toptoolbarpinned" : 0,
						"righttoolbarpinned" : 0,
						"bottomtoolbarpinned" : 0,
						"toolbars_unpinned_last_save" : 0,
						"tallnewobj" : 0,
						"boxanimatetime" : 200,
						"enablehscroll" : 1,
						"enablevscroll" : 1,
						"devicewidth" : 0.0,
						"description" : "",
						"digest" : "",
						"tags" : "",
						"style" : "",
						"subpatcher_template" : "",
						"assistshowspatchername" : 0,
						"boxes" : [ 							{
								"box" : 								{
									"id" : "obj-30",
									"maxclass" : "newobj",
									"numinlets" : 1,
									"numoutlets" : 2,
									"outlettype" : [ "int", "int" ],
									"patcher" : 									{
										"fileversion" : 1,
										"appversion" : 										{
											"major" : 8,
											"minor" : 1,
											"revision" : 5,
											"architecture" : "x64",
											"modernui" : 1
										}
,
										"classnamespace" : "box",
										"rect" : [ 142.0, 176.0, 640.0, 480.0 ],
										"bglocked" : 0,
										"openinpresentation" : 0,
										"default_fontsize" : 12.0,
										"default_fontface" : 0,
										"default_fontname" : "Arial",
										"gridonopen" : 1,
										"gridsize" : [ 15.0, 15.0 ],
										"gridsnaponopen" : 1,
										"objectsnaponopen" : 1,
										"statusbarvisible" : 2,
										"toolbarvisible" : 1,
										"lefttoolbarpinned" : 0,
										"toptoolbarpinned" : 0,
										"righttoolbarpinned" : 0,
										"bottomtoolbarpinned" : 0,
										"toolbars_unpinned_last_save" : 0,
										"tallnewobj" : 0,
										"boxanimatetime" : 200,
										"enablehscroll" : 1,
										"enablevscroll" : 1,
										"devicewidth" : 0.0,
										"description" : "",
										"digest" : "",
										"tags" : "",
										"style" : "",
										"subpatcher_template" : "",
										"assistshowspatchername" : 0,
										"boxes" : [ 											{
												"box" : 												{
													"id" : "obj-75",
													"maxclass" : "newobj",
													"numinlets" : 1,
													"numoutlets" : 1,
													"outlettype" : [ "" ],
													"patching_rect" : [ 367.25, 67.0, 55.0, 22.0 ],
													"text" : "v SDKey"
												}

											}
, 											{
												"box" : 												{
													"id" : "obj-47",
													"maxclass" : "newobj",
													"numinlets" : 2,
													"numoutlets" : 1,
													"outlettype" : [ "int" ],
													"patching_rect" : [ 81.5, 182.0, 29.5, 22.0 ],
													"text" : "- 24"
												}

											}
, 											{
												"box" : 												{
													"id" : "obj-42",
													"maxclass" : "newobj",
													"numinlets" : 2,
													"numoutlets" : 2,
													"outlettype" : [ "", "" ],
													"patching_rect" : [ 81.5, 107.0, 46.0, 22.0 ],
													"text" : "route 1"
												}

											}
, 											{
												"box" : 												{
													"id" : "obj-43",
													"maxclass" : "comment",
													"numinlets" : 1,
													"numoutlets" : 0,
													"patching_rect" : [ 236.0, 135.0, 40.0, 20.0 ],
													"text" : "row 4"
												}

											}
, 											{
												"box" : 												{
													"id" : "obj-44",
													"maxclass" : "newobj",
													"numinlets" : 1,
													"numoutlets" : 2,
													"outlettype" : [ "bang", "int" ],
													"patching_rect" : [ 81.5, 134.0, 153.0, 22.0 ],
													"text" : "t b 3"
												}

											}
, 											{
												"box" : 												{
													"id" : "obj-45",
													"maxclass" : "newobj",
													"numinlets" : 1,
													"numoutlets" : 1,
													"outlettype" : [ "" ],
													"patching_rect" : [ 81.5, 158.0, 55.0, 22.0 ],
													"text" : "v SDKey"
												}

											}
, 											{
												"box" : 												{
													"id" : "obj-46",
													"maxclass" : "newobj",
													"numinlets" : 2,
													"numoutlets" : 1,
													"outlettype" : [ "int" ],
													"patching_rect" : [ 81.5, 79.0, 32.0, 22.0 ],
													"text" : "> 23"
												}

											}
, 											{
												"box" : 												{
													"id" : "obj-40",
													"maxclass" : "newobj",
													"numinlets" : 2,
													"numoutlets" : 1,
													"outlettype" : [ "int" ],
													"patching_rect" : [ 287.0, 628.0, 29.5, 22.0 ],
													"text" : "- 16"
												}

											}
, 											{
												"box" : 												{
													"id" : "obj-41",
													"maxclass" : "newobj",
													"numinlets" : 1,
													"numoutlets" : 1,
													"outlettype" : [ "" ],
													"patching_rect" : [ 287.0, 602.0, 55.0, 22.0 ],
													"text" : "v SDKey"
												}

											}
, 											{
												"box" : 												{
													"id" : "obj-39",
													"maxclass" : "newobj",
													"numinlets" : 2,
													"numoutlets" : 1,
													"outlettype" : [ "int" ],
													"patching_rect" : [ 287.0, 385.0, 29.5, 22.0 ],
													"text" : "- 8"
												}

											}
, 											{
												"box" : 												{
													"id" : "obj-38",
													"maxclass" : "newobj",
													"numinlets" : 1,
													"numoutlets" : 1,
													"outlettype" : [ "" ],
													"patching_rect" : [ 287.0, 359.0, 55.0, 22.0 ],
													"text" : "v SDKey"
												}

											}
, 											{
												"box" : 												{
													"id" : "obj-30",
													"maxclass" : "newobj",
													"numinlets" : 1,
													"numoutlets" : 2,
													"outlettype" : [ "int", "bang" ],
													"patching_rect" : [ 317.5, 569.0, 32.0, 22.0 ],
													"text" : "t 2 b"
												}

											}
, 											{
												"box" : 												{
													"id" : "obj-31",
													"maxclass" : "gswitch2",
													"numinlets" : 2,
													"numoutlets" : 2,
													"outlettype" : [ "", "" ],
													"parameter_enable" : 0,
													"patching_rect" : [ 297.5, 532.0, 39.0, 32.0 ]
												}

											}
, 											{
												"box" : 												{
													"id" : "obj-32",
													"maxclass" : "newobj",
													"numinlets" : 2,
													"numoutlets" : 2,
													"outlettype" : [ "", "" ],
													"patching_rect" : [ 287.0, 498.0, 46.0, 22.0 ],
													"text" : "route 1"
												}

											}
, 											{
												"box" : 												{
													"id" : "obj-33",
													"maxclass" : "newobj",
													"numinlets" : 2,
													"numoutlets" : 1,
													"outlettype" : [ "int" ],
													"patching_rect" : [ 287.0, 471.0, 32.0, 22.0 ],
													"text" : "> 15"
												}

											}
, 											{
												"box" : 												{
													"id" : "obj-34",
													"maxclass" : "comment",
													"numinlets" : 1,
													"numoutlets" : 0,
													"patching_rect" : [ 330.5, 414.0, 40.0, 20.0 ],
													"text" : "row 3"
												}

											}
, 											{
												"box" : 												{
													"id" : "obj-35",
													"maxclass" : "newobj",
													"numinlets" : 1,
													"numoutlets" : 3,
													"outlettype" : [ "bang", "int", "int" ],
													"patching_rect" : [ 276.5, 413.0, 40.0, 22.0 ],
													"text" : "t b i i"
												}

											}
, 											{
												"box" : 												{
													"id" : "obj-36",
													"maxclass" : "newobj",
													"numinlets" : 2,
													"numoutlets" : 1,
													"outlettype" : [ "int" ],
													"patching_rect" : [ 297.5, 444.0, 32.0, 22.0 ],
													"text" : "< 24"
												}

											}
, 											{
												"box" : 												{
													"id" : "obj-29",
													"maxclass" : "newobj",
													"numinlets" : 1,
													"numoutlets" : 2,
													"outlettype" : [ "int", "bang" ],
													"patching_rect" : [ 328.0, 329.0, 32.0, 22.0 ],
													"text" : "t 1 b"
												}

											}
, 											{
												"box" : 												{
													"id" : "obj-27",
													"maxclass" : "gswitch2",
													"numinlets" : 2,
													"numoutlets" : 2,
													"outlettype" : [ "", "" ],
													"parameter_enable" : 0,
													"patching_rect" : [ 308.0, 294.0, 39.0, 32.0 ]
												}

											}
, 											{
												"box" : 												{
													"id" : "obj-24",
													"maxclass" : "newobj",
													"numinlets" : 2,
													"numoutlets" : 2,
													"outlettype" : [ "", "" ],
													"patching_rect" : [ 297.5, 262.0, 46.0, 22.0 ],
													"text" : "route 1"
												}

											}
, 											{
												"box" : 												{
													"id" : "obj-25",
													"maxclass" : "newobj",
													"numinlets" : 2,
													"numoutlets" : 1,
													"outlettype" : [ "int" ],
													"patching_rect" : [ 297.5, 235.0, 29.5, 22.0 ],
													"text" : "> 7"
												}

											}
, 											{
												"box" : 												{
													"id" : "obj-21",
													"maxclass" : "newobj",
													"numinlets" : 2,
													"numoutlets" : 2,
													"outlettype" : [ "", "" ],
													"patching_rect" : [ 297.5, 95.0, 46.0, 22.0 ],
													"text" : "route 1"
												}

											}
, 											{
												"box" : 												{
													"id" : "obj-20",
													"maxclass" : "comment",
													"numinlets" : 1,
													"numoutlets" : 0,
													"patching_rect" : [ 341.0, 178.0, 40.0, 20.0 ],
													"text" : "row 2"
												}

											}
, 											{
												"box" : 												{
													"id" : "obj-19",
													"maxclass" : "comment",
													"numinlets" : 1,
													"numoutlets" : 0,
													"patching_rect" : [ 452.0, 123.0, 40.0, 20.0 ],
													"text" : "row 1"
												}

											}
, 											{
												"box" : 												{
													"id" : "obj-17",
													"maxclass" : "newobj",
													"numinlets" : 1,
													"numoutlets" : 3,
													"outlettype" : [ "bang", "int", "int" ],
													"patching_rect" : [ 287.0, 177.0, 40.0, 22.0 ],
													"text" : "t b i i"
												}

											}
, 											{
												"box" : 												{
													"id" : "obj-16",
													"maxclass" : "newobj",
													"numinlets" : 2,
													"numoutlets" : 1,
													"outlettype" : [ "int" ],
													"patching_rect" : [ 308.0, 208.0, 32.0, 22.0 ],
													"text" : "< 16"
												}

											}
, 											{
												"box" : 												{
													"id" : "obj-15",
													"maxclass" : "newobj",
													"numinlets" : 2,
													"numoutlets" : 1,
													"outlettype" : [ "int" ],
													"patching_rect" : [ 266.0, 673.0, 30.0, 22.0 ],
													"text" : "* 78"
												}

											}
, 											{
												"box" : 												{
													"id" : "obj-14",
													"maxclass" : "newobj",
													"numinlets" : 2,
													"numoutlets" : 1,
													"outlettype" : [ "int" ],
													"patching_rect" : [ 427.5, 673.0, 30.0, 22.0 ],
													"text" : "* 78"
												}

											}
, 											{
												"box" : 												{
													"id" : "obj-13",
													"maxclass" : "comment",
													"numinlets" : 1,
													"numoutlets" : 0,
													"patching_rect" : [ 542.0, 721.0, 32.0, 20.0 ],
													"text" : "* 78"
												}

											}
, 											{
												"box" : 												{
													"id" : "obj-10",
													"linecount" : 2,
													"maxclass" : "comment",
													"numinlets" : 1,
													"numoutlets" : 0,
													"patching_rect" : [ 460.0, 709.0, 75.0, 34.0 ],
													"text" : "y coordinate\n/ row"
												}

											}
, 											{
												"box" : 												{
													"comment" : "",
													"id" : "obj-11",
													"index" : 2,
													"maxclass" : "outlet",
													"numinlets" : 1,
													"numoutlets" : 0,
													"patching_rect" : [ 428.0, 709.0, 30.0, 30.0 ]
												}

											}
, 											{
												"box" : 												{
													"id" : "obj-9",
													"maxclass" : "comment",
													"numinlets" : 1,
													"numoutlets" : 0,
													"patching_rect" : [ 297.5, 714.0, 75.0, 20.0 ],
													"text" : "x coordinate"
												}

											}
, 											{
												"box" : 												{
													"comment" : "",
													"id" : "obj-7",
													"index" : 1,
													"maxclass" : "outlet",
													"numinlets" : 1,
													"numoutlets" : 0,
													"patching_rect" : [ 266.0, 709.0, 30.0, 30.0 ]
												}

											}
, 											{
												"box" : 												{
													"id" : "obj-6",
													"maxclass" : "newobj",
													"numinlets" : 1,
													"numoutlets" : 2,
													"outlettype" : [ "bang", "int" ],
													"patching_rect" : [ 297.5, 122.0, 149.0, 22.0 ],
													"text" : "t b 0"
												}

											}
, 											{
												"box" : 												{
													"id" : "obj-28",
													"maxclass" : "newobj",
													"numinlets" : 1,
													"numoutlets" : 1,
													"outlettype" : [ "" ],
													"patching_rect" : [ 297.5, 146.0, 55.0, 22.0 ],
													"text" : "v SDKey"
												}

											}
, 											{
												"box" : 												{
													"id" : "obj-5",
													"maxclass" : "newobj",
													"numinlets" : 1,
													"numoutlets" : 5,
													"outlettype" : [ "int", "int", "int", "int", "int" ],
													"patching_rect" : [ 266.0, 41.0, 61.0, 22.0 ],
													"text" : "t i i i i i"
												}

											}
, 											{
												"box" : 												{
													"id" : "obj-4",
													"maxclass" : "newobj",
													"numinlets" : 2,
													"numoutlets" : 1,
													"outlettype" : [ "int" ],
													"patching_rect" : [ 297.5, 67.0, 29.5, 22.0 ],
													"text" : "< 8"
												}

											}
, 											{
												"box" : 												{
													"comment" : "",
													"id" : "obj-1",
													"index" : 1,
													"maxclass" : "inlet",
													"numinlets" : 0,
													"numoutlets" : 1,
													"outlettype" : [ "int" ],
													"patching_rect" : [ 266.0, 9.0, 30.0, 30.0 ]
												}

											}
 ],
										"lines" : [ 											{
												"patchline" : 												{
													"destination" : [ "obj-5", 0 ],
													"source" : [ "obj-1", 0 ]
												}

											}
, 											{
												"patchline" : 												{
													"destination" : [ "obj-11", 0 ],
													"source" : [ "obj-14", 0 ]
												}

											}
, 											{
												"patchline" : 												{
													"destination" : [ "obj-7", 0 ],
													"source" : [ "obj-15", 0 ]
												}

											}
, 											{
												"patchline" : 												{
													"destination" : [ "obj-27", 0 ],
													"source" : [ "obj-16", 0 ]
												}

											}
, 											{
												"patchline" : 												{
													"destination" : [ "obj-16", 0 ],
													"source" : [ "obj-17", 2 ]
												}

											}
, 											{
												"patchline" : 												{
													"destination" : [ "obj-25", 0 ],
													"source" : [ "obj-17", 1 ]
												}

											}
, 											{
												"patchline" : 												{
													"destination" : [ "obj-6", 0 ],
													"source" : [ "obj-21", 0 ]
												}

											}
, 											{
												"patchline" : 												{
													"destination" : [ "obj-27", 1 ],
													"midpoints" : [ 307.0, 288.0, 337.5, 288.0 ],
													"source" : [ "obj-24", 0 ]
												}

											}
, 											{
												"patchline" : 												{
													"destination" : [ "obj-24", 0 ],
													"source" : [ "obj-25", 0 ]
												}

											}
, 											{
												"patchline" : 												{
													"destination" : [ "obj-29", 0 ],
													"source" : [ "obj-27", 1 ]
												}

											}
, 											{
												"patchline" : 												{
													"destination" : [ "obj-15", 0 ],
													"midpoints" : [ 307.0, 171.0, 262.0, 171.0, 262.0, 660.0, 275.5, 660.0 ],
													"source" : [ "obj-28", 0 ]
												}

											}
, 											{
												"patchline" : 												{
													"destination" : [ "obj-14", 0 ],
													"midpoints" : [ 337.5, 358.0, 437.0, 358.0 ],
													"source" : [ "obj-29", 0 ]
												}

											}
, 											{
												"patchline" : 												{
													"destination" : [ "obj-38", 0 ],
													"source" : [ "obj-29", 1 ]
												}

											}
, 											{
												"patchline" : 												{
													"destination" : [ "obj-14", 0 ],
													"midpoints" : [ 327.0, 597.0, 437.0, 597.0 ],
													"source" : [ "obj-30", 0 ]
												}

											}
, 											{
												"patchline" : 												{
													"destination" : [ "obj-41", 0 ],
													"source" : [ "obj-30", 1 ]
												}

											}
, 											{
												"patchline" : 												{
													"destination" : [ "obj-30", 0 ],
													"source" : [ "obj-31", 1 ]
												}

											}
, 											{
												"patchline" : 												{
													"destination" : [ "obj-31", 1 ],
													"midpoints" : [ 296.5, 526.0, 327.0, 526.0 ],
													"source" : [ "obj-32", 0 ]
												}

											}
, 											{
												"patchline" : 												{
													"destination" : [ "obj-32", 0 ],
													"source" : [ "obj-33", 0 ]
												}

											}
, 											{
												"patchline" : 												{
													"destination" : [ "obj-33", 0 ],
													"source" : [ "obj-35", 1 ]
												}

											}
, 											{
												"patchline" : 												{
													"destination" : [ "obj-36", 0 ],
													"source" : [ "obj-35", 2 ]
												}

											}
, 											{
												"patchline" : 												{
													"destination" : [ "obj-31", 0 ],
													"source" : [ "obj-36", 0 ]
												}

											}
, 											{
												"patchline" : 												{
													"destination" : [ "obj-39", 0 ],
													"source" : [ "obj-38", 0 ]
												}

											}
, 											{
												"patchline" : 												{
													"destination" : [ "obj-15", 0 ],
													"midpoints" : [ 296.5, 409.0, 262.0, 409.0, 262.0, 660.0, 275.5, 660.0 ],
													"source" : [ "obj-39", 0 ]
												}

											}
, 											{
												"patchline" : 												{
													"destination" : [ "obj-21", 0 ],
													"source" : [ "obj-4", 0 ]
												}

											}
, 											{
												"patchline" : 												{
													"destination" : [ "obj-15", 0 ],
													"midpoints" : [ 296.5, 660.0, 275.5, 660.0 ],
													"source" : [ "obj-40", 0 ]
												}

											}
, 											{
												"patchline" : 												{
													"destination" : [ "obj-40", 0 ],
													"source" : [ "obj-41", 0 ]
												}

											}
, 											{
												"patchline" : 												{
													"destination" : [ "obj-44", 0 ],
													"source" : [ "obj-42", 0 ]
												}

											}
, 											{
												"patchline" : 												{
													"color" : [ 1.0, 0.0, 0.0, 1.0 ],
													"destination" : [ "obj-14", 0 ],
													"source" : [ "obj-44", 1 ]
												}

											}
, 											{
												"patchline" : 												{
													"destination" : [ "obj-45", 0 ],
													"source" : [ "obj-44", 0 ]
												}

											}
, 											{
												"patchline" : 												{
													"destination" : [ "obj-47", 0 ],
													"source" : [ "obj-45", 0 ]
												}

											}
, 											{
												"patchline" : 												{
													"destination" : [ "obj-42", 0 ],
													"source" : [ "obj-46", 0 ]
												}

											}
, 											{
												"patchline" : 												{
													"destination" : [ "obj-15", 0 ],
													"midpoints" : [ 91.0, 659.0, 275.5, 659.0 ],
													"source" : [ "obj-47", 0 ]
												}

											}
, 											{
												"patchline" : 												{
													"destination" : [ "obj-17", 0 ],
													"source" : [ "obj-5", 2 ]
												}

											}
, 											{
												"patchline" : 												{
													"destination" : [ "obj-35", 0 ],
													"source" : [ "obj-5", 1 ]
												}

											}
, 											{
												"patchline" : 												{
													"destination" : [ "obj-4", 0 ],
													"source" : [ "obj-5", 3 ]
												}

											}
, 											{
												"patchline" : 												{
													"destination" : [ "obj-46", 0 ],
													"midpoints" : [ 275.5, 65.0, 91.0, 65.0 ],
													"source" : [ "obj-5", 0 ]
												}

											}
, 											{
												"patchline" : 												{
													"destination" : [ "obj-75", 0 ],
													"midpoints" : [ 317.5, 63.0, 376.75, 63.0 ],
													"source" : [ "obj-5", 4 ]
												}

											}
, 											{
												"patchline" : 												{
													"destination" : [ "obj-14", 0 ],
													"source" : [ "obj-6", 1 ]
												}

											}
, 											{
												"patchline" : 												{
													"destination" : [ "obj-28", 0 ],
													"source" : [ "obj-6", 0 ]
												}

											}
 ],
										"styles" : [ 											{
												"name" : "AudioStatus_Menu",
												"default" : 												{
													"bgfillcolor" : 													{
														"type" : "color",
														"color" : [ 0.294118, 0.313726, 0.337255, 1 ],
														"color1" : [ 0.454902, 0.462745, 0.482353, 0.0 ],
														"color2" : [ 0.290196, 0.309804, 0.301961, 1.0 ],
														"angle" : 270.0,
														"proportion" : 0.39,
														"autogradient" : 0
													}

												}
,
												"parentstyle" : "",
												"multi" : 0
											}
, 											{
												"name" : "_myStyle",
												"default" : 												{
													"bgfillcolor" : 													{
														"type" : "color",
														"color" : [ 0.32549, 0.345098, 0.372549, 0.82 ],
														"color1" : [ 0.376471, 0.384314, 0.4, 1.0 ],
														"color2" : [ 0.290196, 0.309804, 0.301961, 1.0 ],
														"angle" : 270.0,
														"proportion" : 0.39,
														"autogradient" : 0
													}
,
													"textcolor" : [ 0.65098, 0.666667, 0.662745, 1.0 ],
													"elementcolor" : [ 0.448693, 0.454459, 0.433178, 1.0 ]
												}
,
												"parentstyle" : "",
												"multi" : 0
											}
, 											{
												"name" : "newobjBlue-1",
												"default" : 												{
													"accentcolor" : [ 0.317647, 0.654902, 0.976471, 1.0 ]
												}
,
												"parentstyle" : "",
												"multi" : 0
											}
, 											{
												"name" : "newobjGreen-1",
												"default" : 												{
													"accentcolor" : [ 0.0, 0.533333, 0.168627, 1.0 ]
												}
,
												"parentstyle" : "",
												"multi" : 0
											}
, 											{
												"name" : "newobjYellow-1",
												"default" : 												{
													"fontsize" : [ 12.059008 ],
													"accentcolor" : [ 0.82517, 0.78181, 0.059545, 1.0 ]
												}
,
												"parentstyle" : "",
												"multi" : 0
											}
, 											{
												"name" : "numberGold-1",
												"default" : 												{
													"accentcolor" : [ 0.764706, 0.592157, 0.101961, 1.0 ]
												}
,
												"parentstyle" : "",
												"multi" : 0
											}
, 											{
												"name" : "panelGold-1",
												"default" : 												{
													"bgfillcolor" : 													{
														"type" : "color",
														"color" : [ 0.764706, 0.592157, 0.101961, 0.25 ],
														"color1" : [ 0.764706, 0.592157, 0.101961, 1.0 ],
														"color2" : [ 0.290196, 0.309804, 0.301961, 1.0 ],
														"angle" : 270.0,
														"proportion" : 0.39,
														"autogradient" : 0
													}

												}
,
												"parentstyle" : "",
												"multi" : 0
											}
, 											{
												"name" : "s_161006_G!",
												"message" : 												{
													"bgfillcolor" : 													{
														"type" : "color",
														"color" : [ 0.32549, 0.345098, 0.372549, 0.79 ],
														"color1" : [ 0.376471, 0.384314, 0.4, 1.0 ],
														"color2" : [ 0.290196, 0.309804, 0.301961, 1.0 ],
														"angle" : 270.0,
														"proportion" : 0.39,
														"autogradient" : 0
													}

												}
,
												"comment" : 												{
													"textcolor" : [ 0.65098, 0.666667, 0.662745, 1.0 ]
												}
,
												"parentstyle" : "",
												"multi" : 1
											}
, 											{
												"name" : "simple-1",
												"parentstyle" : "simple",
												"multi" : 0
											}
, 											{
												"name" : "simple-2",
												"default" : 												{
													"bgfillcolor" : 													{
														"type" : "color",
														"color" : [ 0.32549, 0.345098, 0.372549, 0.71 ],
														"color1" : [ 0.376471, 0.384314, 0.4, 1.0 ],
														"color2" : [ 0.290196, 0.309804, 0.301961, 1.0 ],
														"angle" : 270.0,
														"proportion" : 0.39,
														"autogradient" : 0
													}
,
													"textcolor" : [ 0.65098, 0.666667, 0.662745, 1.0 ]
												}
,
												"parentstyle" : "default",
												"multi" : 0
											}
, 											{
												"name" : "texteditGold",
												"default" : 												{
													"textcolor_inverse" : [ 0.0, 0.0, 0.0, 1.0 ],
													"bgcolor" : [ 0.764706, 0.592157, 0.101961, 0.68 ]
												}
,
												"parentstyle" : "",
												"multi" : 0
											}
 ]
									}
,
									"patching_rect" : [ 228.916666666666629, 179.0, 107.833333333333343, 22.0 ],
									"saved_object_attributes" : 									{
										"description" : "",
										"digest" : "",
										"globalpatchername" : "",
										"tags" : ""
									}
,
									"text" : "p location"
								}

							}
, 							{
								"box" : 								{
									"id" : "obj-3",
									"maxclass" : "newobj",
									"numinlets" : 1,
									"numoutlets" : 2,
									"outlettype" : [ "bang", "bang" ],
									"patching_rect" : [ 50.0, 100.0, 86.25, 22.0 ],
									"text" : "t b b"
								}

							}
, 							{
								"box" : 								{
									"id" : "obj-2",
									"maxclass" : "newobj",
									"numinlets" : 1,
									"numoutlets" : 4,
									"outlettype" : [ "int", "int", "int", "int" ],
									"patching_rect" : [ 51.25, 150.0, 285.499999999999886, 22.0 ],
									"text" : "t 1 i i i"
								}

							}
, 							{
								"box" : 								{
									"id" : "obj-734",
									"maxclass" : "newobj",
									"numinlets" : 2,
									"numoutlets" : 1,
									"outlettype" : [ "" ],
									"patcher" : 									{
										"fileversion" : 1,
										"appversion" : 										{
											"major" : 8,
											"minor" : 1,
											"revision" : 5,
											"architecture" : "x64",
											"modernui" : 1
										}
,
										"classnamespace" : "box",
										"rect" : [ 84.0, 132.0, 640.0, 480.0 ],
										"bglocked" : 0,
										"openinpresentation" : 0,
										"default_fontsize" : 12.0,
										"default_fontface" : 0,
										"default_fontname" : "Arial",
										"gridonopen" : 1,
										"gridsize" : [ 15.0, 15.0 ],
										"gridsnaponopen" : 1,
										"objectsnaponopen" : 1,
										"statusbarvisible" : 2,
										"toolbarvisible" : 1,
										"lefttoolbarpinned" : 0,
										"toptoolbarpinned" : 0,
										"righttoolbarpinned" : 0,
										"bottomtoolbarpinned" : 0,
										"toolbars_unpinned_last_save" : 0,
										"tallnewobj" : 0,
										"boxanimatetime" : 200,
										"enablehscroll" : 1,
										"enablevscroll" : 1,
										"devicewidth" : 0.0,
										"description" : "",
										"digest" : "",
										"tags" : "",
										"style" : "",
										"subpatcher_template" : "",
										"assistshowspatchername" : 0,
										"boxes" : [ 											{
												"box" : 												{
													"id" : "obj-116",
													"maxclass" : "newobj",
													"numinlets" : 0,
													"numoutlets" : 1,
													"outlettype" : [ "" ],
													"patching_rect" : [ 145.0, 285.0, 105.0, 22.0 ],
													"text" : "r ---Button_Create"
												}

											}
, 											{
												"box" : 												{
													"comment" : "",
													"id" : "obj-1",
													"index" : 1,
													"maxclass" : "outlet",
													"numinlets" : 1,
													"numoutlets" : 0,
													"patching_rect" : [ 96.0, 333.0, 30.0, 30.0 ]
												}

											}
, 											{
												"box" : 												{
													"id" : "obj-726",
													"maxclass" : "newobj",
													"numinlets" : 1,
													"numoutlets" : 1,
													"outlettype" : [ "int" ],
													"patching_rect" : [ 116.0, 258.5, 22.0, 22.0 ],
													"text" : "t 0"
												}

											}
, 											{
												"box" : 												{
													"id" : "obj-725",
													"int" : 1,
													"maxclass" : "gswitch2",
													"numinlets" : 2,
													"numoutlets" : 2,
													"outlettype" : [ "", "" ],
													"parameter_enable" : 0,
													"patching_rect" : [ 96.0, 219.5, 39.0, 32.0 ]
												}

											}
, 											{
												"box" : 												{
													"id" : "obj-723",
													"maxclass" : "newobj",
													"numinlets" : 2,
													"numoutlets" : 1,
													"outlettype" : [ "int" ],
													"patching_rect" : [ 137.5, 188.5, 39.0, 22.0 ],
													"text" : "== 32"
												}

											}
, 											{
												"box" : 												{
													"id" : "obj-722",
													"maxclass" : "newobj",
													"numinlets" : 5,
													"numoutlets" : 4,
													"outlettype" : [ "int", "", "", "int" ],
													"patching_rect" : [ 116.5, 132.5, 61.0, 22.0 ],
													"text" : "counter"
												}

											}
, 											{
												"box" : 												{
													"id" : "obj-721",
													"maxclass" : "newobj",
													"numinlets" : 1,
													"numoutlets" : 2,
													"outlettype" : [ "int", "int" ],
													"patching_rect" : [ 116.0, 160.5, 40.5, 22.0 ],
													"text" : "t i i"
												}

											}
, 											{
												"box" : 												{
													"id" : "obj-715",
													"maxclass" : "newobj",
													"numinlets" : 2,
													"numoutlets" : 1,
													"outlettype" : [ "bang" ],
													"patching_rect" : [ 116.5, 107.5, 56.0, 22.0 ],
													"text" : "metro 10"
												}

											}
, 											{
												"box" : 												{
													"comment" : "",
													"id" : "obj-732",
													"index" : 1,
													"maxclass" : "inlet",
													"numinlets" : 0,
													"numoutlets" : 1,
													"outlettype" : [ "bang" ],
													"patching_rect" : [ 116.5, 40.0, 30.0, 30.0 ]
												}

											}
, 											{
												"box" : 												{
													"comment" : "",
													"id" : "obj-733",
													"index" : 2,
													"maxclass" : "inlet",
													"numinlets" : 0,
													"numoutlets" : 1,
													"outlettype" : [ "bang" ],
													"patching_rect" : [ 151.5, 40.0, 30.0, 30.0 ]
												}

											}
 ],
										"lines" : [ 											{
												"patchline" : 												{
													"destination" : [ "obj-1", 0 ],
													"source" : [ "obj-116", 0 ]
												}

											}
, 											{
												"patchline" : 												{
													"destination" : [ "obj-722", 0 ],
													"source" : [ "obj-715", 0 ]
												}

											}
, 											{
												"patchline" : 												{
													"destination" : [ "obj-723", 0 ],
													"source" : [ "obj-721", 1 ]
												}

											}
, 											{
												"patchline" : 												{
													"destination" : [ "obj-725", 1 ],
													"source" : [ "obj-721", 0 ]
												}

											}
, 											{
												"patchline" : 												{
													"destination" : [ "obj-721", 0 ],
													"source" : [ "obj-722", 0 ]
												}

											}
, 											{
												"patchline" : 												{
													"destination" : [ "obj-725", 0 ],
													"source" : [ "obj-723", 0 ]
												}

											}
, 											{
												"patchline" : 												{
													"destination" : [ "obj-1", 0 ],
													"source" : [ "obj-725", 0 ]
												}

											}
, 											{
												"patchline" : 												{
													"destination" : [ "obj-726", 0 ],
													"midpoints" : [ 125.5, 255.5, 125.5, 255.5 ],
													"source" : [ "obj-725", 1 ]
												}

											}
, 											{
												"patchline" : 												{
													"destination" : [ "obj-715", 0 ],
													"midpoints" : [ 125.5, 286.5, 51.5, 286.5, 51.5, 101.5, 111.5, 101.5, 111.5, 101.5, 126.0, 101.5 ],
													"source" : [ "obj-726", 0 ]
												}

											}
, 											{
												"patchline" : 												{
													"destination" : [ "obj-715", 0 ],
													"source" : [ "obj-732", 0 ]
												}

											}
, 											{
												"patchline" : 												{
													"destination" : [ "obj-722", 2 ],
													"source" : [ "obj-733", 0 ]
												}

											}
 ],
										"styles" : [ 											{
												"name" : "AudioStatus_Menu",
												"default" : 												{
													"bgfillcolor" : 													{
														"type" : "color",
														"color" : [ 0.294118, 0.313726, 0.337255, 1 ],
														"color1" : [ 0.454902, 0.462745, 0.482353, 0.0 ],
														"color2" : [ 0.290196, 0.309804, 0.301961, 1.0 ],
														"angle" : 270.0,
														"proportion" : 0.39,
														"autogradient" : 0
													}

												}
,
												"parentstyle" : "",
												"multi" : 0
											}
, 											{
												"name" : "_myStyle",
												"default" : 												{
													"bgfillcolor" : 													{
														"type" : "color",
														"color" : [ 0.32549, 0.345098, 0.372549, 0.82 ],
														"color1" : [ 0.376471, 0.384314, 0.4, 1.0 ],
														"color2" : [ 0.290196, 0.309804, 0.301961, 1.0 ],
														"angle" : 270.0,
														"proportion" : 0.39,
														"autogradient" : 0
													}
,
													"textcolor" : [ 0.65098, 0.666667, 0.662745, 1.0 ],
													"elementcolor" : [ 0.448693, 0.454459, 0.433178, 1.0 ]
												}
,
												"parentstyle" : "",
												"multi" : 0
											}
, 											{
												"name" : "newobjBlue-1",
												"default" : 												{
													"accentcolor" : [ 0.317647, 0.654902, 0.976471, 1.0 ]
												}
,
												"parentstyle" : "",
												"multi" : 0
											}
, 											{
												"name" : "newobjGreen-1",
												"default" : 												{
													"accentcolor" : [ 0.0, 0.533333, 0.168627, 1.0 ]
												}
,
												"parentstyle" : "",
												"multi" : 0
											}
, 											{
												"name" : "newobjYellow-1",
												"default" : 												{
													"fontsize" : [ 12.059008 ],
													"accentcolor" : [ 0.82517, 0.78181, 0.059545, 1.0 ]
												}
,
												"parentstyle" : "",
												"multi" : 0
											}
, 											{
												"name" : "numberGold-1",
												"default" : 												{
													"accentcolor" : [ 0.764706, 0.592157, 0.101961, 1.0 ]
												}
,
												"parentstyle" : "",
												"multi" : 0
											}
, 											{
												"name" : "panelGold-1",
												"default" : 												{
													"bgfillcolor" : 													{
														"type" : "color",
														"color" : [ 0.764706, 0.592157, 0.101961, 0.25 ],
														"color1" : [ 0.764706, 0.592157, 0.101961, 1.0 ],
														"color2" : [ 0.290196, 0.309804, 0.301961, 1.0 ],
														"angle" : 270.0,
														"proportion" : 0.39,
														"autogradient" : 0
													}

												}
,
												"parentstyle" : "",
												"multi" : 0
											}
, 											{
												"name" : "s_161006_G!",
												"message" : 												{
													"bgfillcolor" : 													{
														"type" : "color",
														"color" : [ 0.32549, 0.345098, 0.372549, 0.79 ],
														"color1" : [ 0.376471, 0.384314, 0.4, 1.0 ],
														"color2" : [ 0.290196, 0.309804, 0.301961, 1.0 ],
														"angle" : 270.0,
														"proportion" : 0.39,
														"autogradient" : 0
													}

												}
,
												"comment" : 												{
													"textcolor" : [ 0.65098, 0.666667, 0.662745, 1.0 ]
												}
,
												"parentstyle" : "",
												"multi" : 1
											}
, 											{
												"name" : "simple-1",
												"parentstyle" : "simple",
												"multi" : 0
											}
, 											{
												"name" : "simple-2",
												"default" : 												{
													"bgfillcolor" : 													{
														"type" : "color",
														"color" : [ 0.32549, 0.345098, 0.372549, 0.71 ],
														"color1" : [ 0.376471, 0.384314, 0.4, 1.0 ],
														"color2" : [ 0.290196, 0.309804, 0.301961, 1.0 ],
														"angle" : 270.0,
														"proportion" : 0.39,
														"autogradient" : 0
													}
,
													"textcolor" : [ 0.65098, 0.666667, 0.662745, 1.0 ]
												}
,
												"parentstyle" : "default",
												"multi" : 0
											}
, 											{
												"name" : "texteditGold",
												"default" : 												{
													"textcolor_inverse" : [ 0.0, 0.0, 0.0, 1.0 ],
													"bgcolor" : [ 0.764706, 0.592157, 0.101961, 0.68 ]
												}
,
												"parentstyle" : "",
												"multi" : 0
											}
 ]
									}
,
									"patching_rect" : [ 51.25, 124.0, 85.0, 22.0 ],
									"saved_object_attributes" : 									{
										"description" : "",
										"digest" : "",
										"globalpatchername" : "",
										"tags" : ""
									}
,
									"text" : "p count_to_32"
								}

							}
, 							{
								"box" : 								{
									"id" : "obj-35",
									"maxclass" : "newobj",
									"numinlets" : 2,
									"numoutlets" : 2,
									"outlettype" : [ "", "" ],
									"patching_rect" : [ 51.25, 307.0, 46.0, 22.0 ],
									"text" : "route 1"
								}

							}
, 							{
								"box" : 								{
									"id" : "obj-9",
									"linecount" : 2,
									"maxclass" : "newobj",
									"numinlets" : 7,
									"numoutlets" : 1,
									"outlettype" : [ "" ],
									"patching_rect" : [ 51.25, 248.0, 561.0, 36.0 ],
									"text" : "sprintf %i script newobject bpatcher @name StreamDeckEdtiorButton @varname %iStreamDeckButton @presentation_rect %i %i 78. 78. @patching_rect %i %i 78. 78. @presentation 1 @args %i"
								}

							}
, 							{
								"box" : 								{
									"comment" : "",
									"id" : "obj-74",
									"index" : 1,
									"maxclass" : "inlet",
									"numinlets" : 0,
									"numoutlets" : 1,
									"outlettype" : [ "" ],
									"patching_rect" : [ 50.0, 40.0, 30.0, 30.0 ]
								}

							}
, 							{
								"box" : 								{
									"comment" : "",
									"id" : "obj-75",
									"index" : 1,
									"maxclass" : "outlet",
									"numinlets" : 1,
									"numoutlets" : 0,
									"patching_rect" : [ 51.25, 389.0, 30.0, 30.0 ]
								}

							}
 ],
						"lines" : [ 							{
								"patchline" : 								{
									"destination" : [ "obj-30", 0 ],
									"source" : [ "obj-2", 2 ]
								}

							}
, 							{
								"patchline" : 								{
									"destination" : [ "obj-9", 6 ],
									"midpoints" : [ 327.249999999999886, 172.0, 602.75, 172.0 ],
									"source" : [ "obj-2", 3 ]
								}

							}
, 							{
								"patchline" : 								{
									"destination" : [ "obj-9", 1 ],
									"source" : [ "obj-2", 1 ]
								}

							}
, 							{
								"patchline" : 								{
									"destination" : [ "obj-9", 0 ],
									"source" : [ "obj-2", 0 ]
								}

							}
, 							{
								"patchline" : 								{
									"destination" : [ "obj-734", 1 ],
									"source" : [ "obj-3", 1 ]
								}

							}
, 							{
								"patchline" : 								{
									"destination" : [ "obj-734", 0 ],
									"source" : [ "obj-3", 0 ]
								}

							}
, 							{
								"patchline" : 								{
									"destination" : [ "obj-9", 5 ],
									"midpoints" : [ 327.25, 204.0, 512.416666666666742, 204.0 ],
									"order" : 0,
									"source" : [ "obj-30", 1 ]
								}

							}
, 							{
								"patchline" : 								{
									"destination" : [ "obj-9", 3 ],
									"order" : 1,
									"source" : [ "obj-30", 1 ]
								}

							}
, 							{
								"patchline" : 								{
									"destination" : [ "obj-9", 4 ],
									"midpoints" : [ 238.416666666666629, 226.0, 422.083333333333314, 226.0 ],
									"order" : 0,
									"source" : [ "obj-30", 0 ]
								}

							}
, 							{
								"patchline" : 								{
									"destination" : [ "obj-9", 2 ],
									"order" : 1,
									"source" : [ "obj-30", 0 ]
								}

							}
, 							{
								"patchline" : 								{
									"destination" : [ "obj-75", 0 ],
									"source" : [ "obj-35", 0 ]
								}

							}
, 							{
								"patchline" : 								{
									"destination" : [ "obj-2", 0 ],
									"source" : [ "obj-734", 0 ]
								}

							}
, 							{
								"patchline" : 								{
									"destination" : [ "obj-3", 0 ],
									"source" : [ "obj-74", 0 ]
								}

							}
, 							{
								"patchline" : 								{
									"destination" : [ "obj-35", 0 ],
									"source" : [ "obj-9", 0 ]
								}

							}
 ]
					}
,
					"patching_rect" : [ 931.75, 39.0, 98.0, 22.0 ],
					"saved_object_attributes" : 					{
						"description" : "",
						"digest" : "",
						"globalpatchername" : "",
						"tags" : ""
					}
,
					"text" : "p create_buttons"
				}

			}
, 			{
				"box" : 				{
					"id" : "obj-5",
					"maxclass" : "message",
					"numinlets" : 2,
					"numoutlets" : 1,
					"outlettype" : [ "" ],
					"patching_rect" : [ 931.75, 15.0, 35.0, 22.0 ],
					"text" : "bang"
				}

			}
, 			{
				"box" : 				{
					"id" : "obj-1",
					"maxclass" : "newobj",
					"numinlets" : 1,
					"numoutlets" : 2,
					"outlettype" : [ "", "" ],
					"patching_rect" : [ 931.75, 65.0, 67.0, 22.0 ],
					"save" : [ "#N", "thispatcher", ";", "#Q", "end", ";" ],
					"text" : "thispatcher"
				}

			}
, 			{
				"box" : 				{
					"args" : [ 0 ],
					"bgmode" : 0,
					"border" : 0,
					"clickthrough" : 0,
					"enablehscroll" : 0,
					"enablevscroll" : 0,
					"id" : "obj-104",
					"lockeddragscroll" : 0,
					"maxclass" : "bpatcher",
					"name" : "StreamDeckEditorButton.maxpat",
					"numinlets" : 0,
					"numoutlets" : 0,
					"offset" : [ 0.0, 0.0 ],
					"patching_rect" : [ 0.0, 0.0, 78.0, 78.0 ],
					"presentation" : 1,
					"presentation_rect" : [ 0.0, 0.0, 78.0, 78.0 ],
					"varname" : "0StreamDeckButton",
					"viewvisibility" : 1
				}

			}
, 			{
				"box" : 				{
					"args" : [ 1 ],
					"bgmode" : 0,
					"border" : 0,
					"clickthrough" : 0,
					"enablehscroll" : 0,
					"enablevscroll" : 0,
					"id" : "obj-106",
					"lockeddragscroll" : 0,
					"maxclass" : "bpatcher",
					"name" : "StreamDeckEditorButton.maxpat",
					"numinlets" : 0,
					"numoutlets" : 0,
					"offset" : [ 0.0, 0.0 ],
					"patching_rect" : [ 78.0, 0.0, 78.0, 78.0 ],
					"presentation" : 1,
					"presentation_rect" : [ 78.0, 0.0, 78.0, 78.0 ],
					"varname" : "1StreamDeckButton",
					"viewvisibility" : 1
				}

			}
, 			{
				"box" : 				{
					"args" : [ 2 ],
					"bgmode" : 0,
					"border" : 0,
					"clickthrough" : 0,
					"enablehscroll" : 0,
					"enablevscroll" : 0,
					"id" : "obj-108",
					"lockeddragscroll" : 0,
					"maxclass" : "bpatcher",
					"name" : "StreamDeckEditorButton.maxpat",
					"numinlets" : 0,
					"numoutlets" : 0,
					"offset" : [ 0.0, 0.0 ],
					"patching_rect" : [ 156.0, 0.0, 78.0, 78.0 ],
					"presentation" : 1,
					"presentation_rect" : [ 156.0, 0.0, 78.0, 78.0 ],
					"varname" : "2StreamDeckButton",
					"viewvisibility" : 1
				}

			}
, 			{
				"box" : 				{
					"args" : [ 3 ],
					"bgmode" : 0,
					"border" : 0,
					"clickthrough" : 0,
					"enablehscroll" : 0,
					"enablevscroll" : 0,
					"id" : "obj-110",
					"lockeddragscroll" : 0,
					"maxclass" : "bpatcher",
					"name" : "StreamDeckEditorButton.maxpat",
					"numinlets" : 0,
					"numoutlets" : 0,
					"offset" : [ 0.0, 0.0 ],
					"patching_rect" : [ 234.0, 0.0, 78.0, 78.0 ],
					"presentation" : 1,
					"presentation_rect" : [ 234.0, 0.0, 78.0, 78.0 ],
					"varname" : "3StreamDeckButton",
					"viewvisibility" : 1
				}

			}
, 			{
				"box" : 				{
					"args" : [ 4 ],
					"bgmode" : 0,
					"border" : 0,
					"clickthrough" : 0,
					"enablehscroll" : 0,
					"enablevscroll" : 0,
					"id" : "obj-112",
					"lockeddragscroll" : 0,
					"maxclass" : "bpatcher",
					"name" : "StreamDeckEditorButton.maxpat",
					"numinlets" : 0,
					"numoutlets" : 0,
					"offset" : [ 0.0, 0.0 ],
					"patching_rect" : [ 312.0, 0.0, 78.0, 78.0 ],
					"presentation" : 1,
					"presentation_rect" : [ 312.0, 0.0, 78.0, 78.0 ],
					"varname" : "4StreamDeckButton",
					"viewvisibility" : 1
				}

			}
, 			{
				"box" : 				{
					"args" : [ 5 ],
					"bgmode" : 0,
					"border" : 0,
					"clickthrough" : 0,
					"enablehscroll" : 0,
					"enablevscroll" : 0,
					"id" : "obj-114",
					"lockeddragscroll" : 0,
					"maxclass" : "bpatcher",
					"name" : "StreamDeckEditorButton.maxpat",
					"numinlets" : 0,
					"numoutlets" : 0,
					"offset" : [ 0.0, 0.0 ],
					"patching_rect" : [ 390.0, 0.0, 78.0, 78.0 ],
					"presentation" : 1,
					"presentation_rect" : [ 390.0, 0.0, 78.0, 78.0 ],
					"varname" : "5StreamDeckButton",
					"viewvisibility" : 1
				}

			}
, 			{
				"box" : 				{
					"args" : [ 6 ],
					"bgmode" : 0,
					"border" : 0,
					"clickthrough" : 0,
					"enablehscroll" : 0,
					"enablevscroll" : 0,
					"id" : "obj-116",
					"lockeddragscroll" : 0,
					"maxclass" : "bpatcher",
					"name" : "StreamDeckEditorButton.maxpat",
					"numinlets" : 0,
					"numoutlets" : 0,
					"offset" : [ 0.0, 0.0 ],
					"patching_rect" : [ 468.0, 0.0, 78.0, 78.0 ],
					"presentation" : 1,
					"presentation_rect" : [ 468.0, 0.0, 78.0, 78.0 ],
					"varname" : "6StreamDeckButton",
					"viewvisibility" : 1
				}

			}
, 			{
				"box" : 				{
					"args" : [ 7 ],
					"bgmode" : 0,
					"border" : 0,
					"clickthrough" : 0,
					"enablehscroll" : 0,
					"enablevscroll" : 0,
					"id" : "obj-118",
					"lockeddragscroll" : 0,
					"maxclass" : "bpatcher",
					"name" : "StreamDeckEditorButton.maxpat",
					"numinlets" : 0,
					"numoutlets" : 0,
					"offset" : [ 0.0, 0.0 ],
					"patching_rect" : [ 546.0, 0.0, 78.0, 78.0 ],
					"presentation" : 1,
					"presentation_rect" : [ 546.0, 0.0, 78.0, 78.0 ],
					"varname" : "7StreamDeckButton",
					"viewvisibility" : 1
				}

			}
, 			{
				"box" : 				{
					"args" : [ 8 ],
					"bgmode" : 0,
					"border" : 0,
					"clickthrough" : 0,
					"enablehscroll" : 0,
					"enablevscroll" : 0,
					"id" : "obj-120",
					"lockeddragscroll" : 0,
					"maxclass" : "bpatcher",
					"name" : "StreamDeckEditorButton.maxpat",
					"numinlets" : 0,
					"numoutlets" : 0,
					"offset" : [ 0.0, 0.0 ],
					"patching_rect" : [ 0.0, 78.0, 78.0, 78.0 ],
					"presentation" : 1,
					"presentation_rect" : [ 0.0, 78.0, 78.0, 78.0 ],
					"varname" : "8StreamDeckButton",
					"viewvisibility" : 1
				}

			}
, 			{
				"box" : 				{
					"args" : [ 9 ],
					"bgmode" : 0,
					"border" : 0,
					"clickthrough" : 0,
					"enablehscroll" : 0,
					"enablevscroll" : 0,
					"id" : "obj-122",
					"lockeddragscroll" : 0,
					"maxclass" : "bpatcher",
					"name" : "StreamDeckEditorButton.maxpat",
					"numinlets" : 0,
					"numoutlets" : 0,
					"offset" : [ 0.0, 0.0 ],
					"patching_rect" : [ 78.0, 78.0, 78.0, 78.0 ],
					"presentation" : 1,
					"presentation_rect" : [ 78.0, 78.0, 78.0, 78.0 ],
					"varname" : "9StreamDeckButton",
					"viewvisibility" : 1
				}

			}
, 			{
				"box" : 				{
					"args" : [ 10 ],
					"bgmode" : 0,
					"border" : 0,
					"clickthrough" : 0,
					"enablehscroll" : 0,
					"enablevscroll" : 0,
					"id" : "obj-124",
					"lockeddragscroll" : 0,
					"maxclass" : "bpatcher",
					"name" : "StreamDeckEditorButton.maxpat",
					"numinlets" : 0,
					"numoutlets" : 0,
					"offset" : [ 0.0, 0.0 ],
					"patching_rect" : [ 156.0, 78.0, 78.0, 78.0 ],
					"presentation" : 1,
					"presentation_rect" : [ 156.0, 78.0, 78.0, 78.0 ],
					"varname" : "10StreamDeckButton",
					"viewvisibility" : 1
				}

			}
, 			{
				"box" : 				{
					"args" : [ 11 ],
					"bgmode" : 0,
					"border" : 0,
					"clickthrough" : 0,
					"enablehscroll" : 0,
					"enablevscroll" : 0,
					"id" : "obj-126",
					"lockeddragscroll" : 0,
					"maxclass" : "bpatcher",
					"name" : "StreamDeckEditorButton.maxpat",
					"numinlets" : 0,
					"numoutlets" : 0,
					"offset" : [ 0.0, 0.0 ],
					"patching_rect" : [ 234.0, 78.0, 78.0, 78.0 ],
					"presentation" : 1,
					"presentation_rect" : [ 234.0, 78.0, 78.0, 78.0 ],
					"varname" : "11StreamDeckButton",
					"viewvisibility" : 1
				}

			}
, 			{
				"box" : 				{
					"args" : [ 12 ],
					"bgmode" : 0,
					"border" : 0,
					"clickthrough" : 0,
					"enablehscroll" : 0,
					"enablevscroll" : 0,
					"id" : "obj-128",
					"lockeddragscroll" : 0,
					"maxclass" : "bpatcher",
					"name" : "StreamDeckEditorButton.maxpat",
					"numinlets" : 0,
					"numoutlets" : 0,
					"offset" : [ 0.0, 0.0 ],
					"patching_rect" : [ 312.0, 78.0, 78.0, 78.0 ],
					"presentation" : 1,
					"presentation_rect" : [ 312.0, 78.0, 78.0, 78.0 ],
					"varname" : "12StreamDeckButton",
					"viewvisibility" : 1
				}

			}
, 			{
				"box" : 				{
					"args" : [ 13 ],
					"bgmode" : 0,
					"border" : 0,
					"clickthrough" : 0,
					"enablehscroll" : 0,
					"enablevscroll" : 0,
					"id" : "obj-130",
					"lockeddragscroll" : 0,
					"maxclass" : "bpatcher",
					"name" : "StreamDeckEditorButton.maxpat",
					"numinlets" : 0,
					"numoutlets" : 0,
					"offset" : [ 0.0, 0.0 ],
					"patching_rect" : [ 390.0, 78.0, 78.0, 78.0 ],
					"presentation" : 1,
					"presentation_rect" : [ 390.0, 78.0, 78.0, 78.0 ],
					"varname" : "13StreamDeckButton",
					"viewvisibility" : 1
				}

			}
, 			{
				"box" : 				{
					"args" : [ 14 ],
					"bgmode" : 0,
					"border" : 0,
					"clickthrough" : 0,
					"enablehscroll" : 0,
					"enablevscroll" : 0,
					"id" : "obj-132",
					"lockeddragscroll" : 0,
					"maxclass" : "bpatcher",
					"name" : "StreamDeckEditorButton.maxpat",
					"numinlets" : 0,
					"numoutlets" : 0,
					"offset" : [ 0.0, 0.0 ],
					"patching_rect" : [ 468.0, 78.0, 78.0, 78.0 ],
					"presentation" : 1,
					"presentation_rect" : [ 468.0, 78.0, 78.0, 78.0 ],
					"varname" : "14StreamDeckButton",
					"viewvisibility" : 1
				}

			}
, 			{
				"box" : 				{
					"args" : [ 15 ],
					"bgmode" : 0,
					"border" : 0,
					"clickthrough" : 0,
					"enablehscroll" : 0,
					"enablevscroll" : 0,
					"id" : "obj-134",
					"lockeddragscroll" : 0,
					"maxclass" : "bpatcher",
					"name" : "StreamDeckEditorButton.maxpat",
					"numinlets" : 0,
					"numoutlets" : 0,
					"offset" : [ 0.0, 0.0 ],
					"patching_rect" : [ 546.0, 78.0, 78.0, 78.0 ],
					"presentation" : 1,
					"presentation_rect" : [ 546.0, 78.0, 78.0, 78.0 ],
					"varname" : "15StreamDeckButton",
					"viewvisibility" : 1
				}

			}
, 			{
				"box" : 				{
					"args" : [ 16 ],
					"bgmode" : 0,
					"border" : 0,
					"clickthrough" : 0,
					"enablehscroll" : 0,
					"enablevscroll" : 0,
					"id" : "obj-136",
					"lockeddragscroll" : 0,
					"maxclass" : "bpatcher",
					"name" : "StreamDeckEditorButton.maxpat",
					"numinlets" : 0,
					"numoutlets" : 0,
					"offset" : [ 0.0, 0.0 ],
					"patching_rect" : [ 0.0, 156.0, 78.0, 78.0 ],
					"presentation" : 1,
					"presentation_rect" : [ 0.0, 156.0, 78.0, 78.0 ],
					"varname" : "16StreamDeckButton",
					"viewvisibility" : 1
				}

			}
, 			{
				"box" : 				{
					"args" : [ 17 ],
					"bgmode" : 0,
					"border" : 0,
					"clickthrough" : 0,
					"enablehscroll" : 0,
					"enablevscroll" : 0,
					"id" : "obj-138",
					"lockeddragscroll" : 0,
					"maxclass" : "bpatcher",
					"name" : "StreamDeckEditorButton.maxpat",
					"numinlets" : 0,
					"numoutlets" : 0,
					"offset" : [ 0.0, 0.0 ],
					"patching_rect" : [ 78.0, 156.0, 78.0, 78.0 ],
					"presentation" : 1,
					"presentation_rect" : [ 78.0, 156.0, 78.0, 78.0 ],
					"varname" : "17StreamDeckButton",
					"viewvisibility" : 1
				}

			}
, 			{
				"box" : 				{
					"args" : [ 18 ],
					"bgmode" : 0,
					"border" : 0,
					"clickthrough" : 0,
					"enablehscroll" : 0,
					"enablevscroll" : 0,
					"id" : "obj-140",
					"lockeddragscroll" : 0,
					"maxclass" : "bpatcher",
					"name" : "StreamDeckEditorButton.maxpat",
					"numinlets" : 0,
					"numoutlets" : 0,
					"offset" : [ 0.0, 0.0 ],
					"patching_rect" : [ 156.0, 156.0, 78.0, 78.0 ],
					"presentation" : 1,
					"presentation_rect" : [ 156.0, 156.0, 78.0, 78.0 ],
					"varname" : "18StreamDeckButton",
					"viewvisibility" : 1
				}

			}
, 			{
				"box" : 				{
					"args" : [ 19 ],
					"bgmode" : 0,
					"border" : 0,
					"clickthrough" : 0,
					"enablehscroll" : 0,
					"enablevscroll" : 0,
					"id" : "obj-142",
					"lockeddragscroll" : 0,
					"maxclass" : "bpatcher",
					"name" : "StreamDeckEditorButton.maxpat",
					"numinlets" : 0,
					"numoutlets" : 0,
					"offset" : [ 0.0, 0.0 ],
					"patching_rect" : [ 234.0, 156.0, 78.0, 78.0 ],
					"presentation" : 1,
					"presentation_rect" : [ 234.0, 156.0, 78.0, 78.0 ],
					"varname" : "19StreamDeckButton",
					"viewvisibility" : 1
				}

			}
, 			{
				"box" : 				{
					"args" : [ 20 ],
					"bgmode" : 0,
					"border" : 0,
					"clickthrough" : 0,
					"enablehscroll" : 0,
					"enablevscroll" : 0,
					"id" : "obj-144",
					"lockeddragscroll" : 0,
					"maxclass" : "bpatcher",
					"name" : "StreamDeckEditorButton.maxpat",
					"numinlets" : 0,
					"numoutlets" : 0,
					"offset" : [ 0.0, 0.0 ],
					"patching_rect" : [ 312.0, 156.0, 78.0, 78.0 ],
					"presentation" : 1,
					"presentation_rect" : [ 312.0, 156.0, 78.0, 78.0 ],
					"varname" : "20StreamDeckButton",
					"viewvisibility" : 1
				}

			}
, 			{
				"box" : 				{
					"args" : [ 21 ],
					"bgmode" : 0,
					"border" : 0,
					"clickthrough" : 0,
					"enablehscroll" : 0,
					"enablevscroll" : 0,
					"id" : "obj-146",
					"lockeddragscroll" : 0,
					"maxclass" : "bpatcher",
					"name" : "StreamDeckEditorButton.maxpat",
					"numinlets" : 0,
					"numoutlets" : 0,
					"offset" : [ 0.0, 0.0 ],
					"patching_rect" : [ 390.0, 156.0, 78.0, 78.0 ],
					"presentation" : 1,
					"presentation_rect" : [ 390.0, 156.0, 78.0, 78.0 ],
					"varname" : "21StreamDeckButton",
					"viewvisibility" : 1
				}

			}
, 			{
				"box" : 				{
					"args" : [ 22 ],
					"bgmode" : 0,
					"border" : 0,
					"clickthrough" : 0,
					"enablehscroll" : 0,
					"enablevscroll" : 0,
					"id" : "obj-148",
					"lockeddragscroll" : 0,
					"maxclass" : "bpatcher",
					"name" : "StreamDeckEditorButton.maxpat",
					"numinlets" : 0,
					"numoutlets" : 0,
					"offset" : [ 0.0, 0.0 ],
					"patching_rect" : [ 468.0, 156.0, 78.0, 78.0 ],
					"presentation" : 1,
					"presentation_rect" : [ 468.0, 156.0, 78.0, 78.0 ],
					"varname" : "22StreamDeckButton",
					"viewvisibility" : 1
				}

			}
, 			{
				"box" : 				{
					"args" : [ 23 ],
					"bgmode" : 0,
					"border" : 0,
					"clickthrough" : 0,
					"enablehscroll" : 0,
					"enablevscroll" : 0,
					"id" : "obj-150",
					"lockeddragscroll" : 0,
					"maxclass" : "bpatcher",
					"name" : "StreamDeckEditorButton.maxpat",
					"numinlets" : 0,
					"numoutlets" : 0,
					"offset" : [ 0.0, 0.0 ],
					"patching_rect" : [ 546.0, 156.0, 78.0, 78.0 ],
					"presentation" : 1,
					"presentation_rect" : [ 546.0, 156.0, 78.0, 78.0 ],
					"varname" : "23StreamDeckButton",
					"viewvisibility" : 1
				}

			}
, 			{
				"box" : 				{
					"args" : [ 24 ],
					"bgmode" : 0,
					"border" : 0,
					"clickthrough" : 0,
					"enablehscroll" : 0,
					"enablevscroll" : 0,
					"id" : "obj-152",
					"lockeddragscroll" : 0,
					"maxclass" : "bpatcher",
					"name" : "StreamDeckEditorButton.maxpat",
					"numinlets" : 0,
					"numoutlets" : 0,
					"offset" : [ 0.0, 0.0 ],
					"patching_rect" : [ 0.0, 234.0, 78.0, 78.0 ],
					"presentation" : 1,
					"presentation_rect" : [ 0.0, 234.0, 78.0, 78.0 ],
					"varname" : "24StreamDeckButton",
					"viewvisibility" : 1
				}

			}
, 			{
				"box" : 				{
					"args" : [ 25 ],
					"bgmode" : 0,
					"border" : 0,
					"clickthrough" : 0,
					"enablehscroll" : 0,
					"enablevscroll" : 0,
					"id" : "obj-154",
					"lockeddragscroll" : 0,
					"maxclass" : "bpatcher",
					"name" : "StreamDeckEditorButton.maxpat",
					"numinlets" : 0,
					"numoutlets" : 0,
					"offset" : [ 0.0, 0.0 ],
					"patching_rect" : [ 78.0, 234.0, 78.0, 78.0 ],
					"presentation" : 1,
					"presentation_rect" : [ 78.0, 234.0, 78.0, 78.0 ],
					"varname" : "25StreamDeckButton",
					"viewvisibility" : 1
				}

			}
, 			{
				"box" : 				{
					"args" : [ 26 ],
					"bgmode" : 0,
					"border" : 0,
					"clickthrough" : 0,
					"enablehscroll" : 0,
					"enablevscroll" : 0,
					"id" : "obj-156",
					"lockeddragscroll" : 0,
					"maxclass" : "bpatcher",
					"name" : "StreamDeckEditorButton.maxpat",
					"numinlets" : 0,
					"numoutlets" : 0,
					"offset" : [ 0.0, 0.0 ],
					"patching_rect" : [ 156.0, 234.0, 78.0, 78.0 ],
					"presentation" : 1,
					"presentation_rect" : [ 156.0, 234.0, 78.0, 78.0 ],
					"varname" : "26StreamDeckButton",
					"viewvisibility" : 1
				}

			}
, 			{
				"box" : 				{
					"args" : [ 27 ],
					"bgmode" : 0,
					"border" : 0,
					"clickthrough" : 0,
					"enablehscroll" : 0,
					"enablevscroll" : 0,
					"id" : "obj-158",
					"lockeddragscroll" : 0,
					"maxclass" : "bpatcher",
					"name" : "StreamDeckEditorButton.maxpat",
					"numinlets" : 0,
					"numoutlets" : 0,
					"offset" : [ 0.0, 0.0 ],
					"patching_rect" : [ 234.0, 234.0, 78.0, 78.0 ],
					"presentation" : 1,
					"presentation_rect" : [ 234.0, 234.0, 78.0, 78.0 ],
					"varname" : "27StreamDeckButton",
					"viewvisibility" : 1
				}

			}
, 			{
				"box" : 				{
					"args" : [ 28 ],
					"bgmode" : 0,
					"border" : 0,
					"clickthrough" : 0,
					"enablehscroll" : 0,
					"enablevscroll" : 0,
					"id" : "obj-160",
					"lockeddragscroll" : 0,
					"maxclass" : "bpatcher",
					"name" : "StreamDeckEditorButton.maxpat",
					"numinlets" : 0,
					"numoutlets" : 0,
					"offset" : [ 0.0, 0.0 ],
					"patching_rect" : [ 312.0, 234.0, 78.0, 78.0 ],
					"presentation" : 1,
					"presentation_rect" : [ 312.0, 234.0, 78.0, 78.0 ],
					"varname" : "28StreamDeckButton",
					"viewvisibility" : 1
				}

			}
, 			{
				"box" : 				{
					"args" : [ 29 ],
					"bgmode" : 0,
					"border" : 0,
					"clickthrough" : 0,
					"enablehscroll" : 0,
					"enablevscroll" : 0,
					"id" : "obj-162",
					"lockeddragscroll" : 0,
					"maxclass" : "bpatcher",
					"name" : "StreamDeckEditorButton.maxpat",
					"numinlets" : 0,
					"numoutlets" : 0,
					"offset" : [ 0.0, 0.0 ],
					"patching_rect" : [ 390.0, 234.0, 78.0, 78.0 ],
					"presentation" : 1,
					"presentation_rect" : [ 390.0, 234.0, 78.0, 78.0 ],
					"varname" : "29StreamDeckButton",
					"viewvisibility" : 1
				}

			}
, 			{
				"box" : 				{
					"args" : [ 30 ],
					"bgmode" : 0,
					"border" : 0,
					"clickthrough" : 0,
					"enablehscroll" : 0,
					"enablevscroll" : 0,
					"id" : "obj-164",
					"lockeddragscroll" : 0,
					"maxclass" : "bpatcher",
					"name" : "StreamDeckEditorButton.maxpat",
					"numinlets" : 0,
					"numoutlets" : 0,
					"offset" : [ 0.0, 0.0 ],
					"patching_rect" : [ 468.0, 234.0, 78.0, 78.0 ],
					"presentation" : 1,
					"presentation_rect" : [ 468.0, 234.0, 78.0, 78.0 ],
					"varname" : "30StreamDeckButton",
					"viewvisibility" : 1
				}

			}
, 			{
				"box" : 				{
					"args" : [ 31 ],
					"bgmode" : 0,
					"border" : 0,
					"clickthrough" : 0,
					"enablehscroll" : 0,
					"enablevscroll" : 0,
					"id" : "obj-166",
					"lockeddragscroll" : 0,
					"maxclass" : "bpatcher",
					"name" : "StreamDeckEditorButton.maxpat",
					"numinlets" : 0,
					"numoutlets" : 0,
					"offset" : [ 0.0, 0.0 ],
					"patching_rect" : [ 546.0, 234.0, 78.0, 78.0 ],
					"presentation" : 1,
					"presentation_rect" : [ 546.0, 234.0, 78.0, 78.0 ],
					"varname" : "31StreamDeckButton",
					"viewvisibility" : 1
				}

			}
 ],
		"lines" : [ 			{
				"patchline" : 				{
					"destination" : [ "obj-76", 0 ],
					"source" : [ "obj-5", 0 ]
				}

			}
, 			{
				"patchline" : 				{
					"destination" : [ "obj-1", 0 ],
					"source" : [ "obj-76", 0 ]
				}

			}
 ],
		"dependency_cache" : [ 			{
				"name" : "StreamDeckEditorButton.maxpat",
				"bootpath" : "C:/ProgramData/Chuck/main/Modules/Stream Deck Editor v2",
				"patcherrelativepath" : ".",
				"type" : "JSON",
				"implicit" : 1
			}
, 			{
				"name" : "clear.png",
				"bootpath" : "C:/ProgramData/Chuck/main/Modules/Stream Deck Editor v2",
				"patcherrelativepath" : ".",
				"type" : "PNG",
				"implicit" : 1
			}
 ],
		"autosave" : 0,
		"styles" : [ 			{
				"name" : "AudioStatus_Menu",
				"default" : 				{
					"bgfillcolor" : 					{
						"type" : "color",
						"color" : [ 0.294118, 0.313726, 0.337255, 1 ],
						"color1" : [ 0.454902, 0.462745, 0.482353, 0.0 ],
						"color2" : [ 0.290196, 0.309804, 0.301961, 1.0 ],
						"angle" : 270.0,
						"proportion" : 0.39,
						"autogradient" : 0
					}

				}
,
				"parentstyle" : "",
				"multi" : 0
			}
, 			{
				"name" : "_myStyle",
				"default" : 				{
					"bgfillcolor" : 					{
						"type" : "color",
						"color" : [ 0.32549, 0.345098, 0.372549, 0.82 ],
						"color1" : [ 0.376471, 0.384314, 0.4, 1.0 ],
						"color2" : [ 0.290196, 0.309804, 0.301961, 1.0 ],
						"angle" : 270.0,
						"proportion" : 0.39,
						"autogradient" : 0
					}
,
					"textcolor" : [ 0.65098, 0.666667, 0.662745, 1.0 ],
					"elementcolor" : [ 0.448693, 0.454459, 0.433178, 1.0 ]
				}
,
				"parentstyle" : "",
				"multi" : 0
			}
, 			{
				"name" : "newobjBlue-1",
				"default" : 				{
					"accentcolor" : [ 0.317647, 0.654902, 0.976471, 1.0 ]
				}
,
				"parentstyle" : "",
				"multi" : 0
			}
, 			{
				"name" : "newobjGreen-1",
				"default" : 				{
					"accentcolor" : [ 0.0, 0.533333, 0.168627, 1.0 ]
				}
,
				"parentstyle" : "",
				"multi" : 0
			}
, 			{
				"name" : "newobjYellow-1",
				"default" : 				{
					"fontsize" : [ 12.059008 ],
					"accentcolor" : [ 0.82517, 0.78181, 0.059545, 1.0 ]
				}
,
				"parentstyle" : "",
				"multi" : 0
			}
, 			{
				"name" : "numberGold-1",
				"default" : 				{
					"accentcolor" : [ 0.764706, 0.592157, 0.101961, 1.0 ]
				}
,
				"parentstyle" : "",
				"multi" : 0
			}
, 			{
				"name" : "panelGold-1",
				"default" : 				{
					"bgfillcolor" : 					{
						"type" : "color",
						"color" : [ 0.764706, 0.592157, 0.101961, 0.25 ],
						"color1" : [ 0.764706, 0.592157, 0.101961, 1.0 ],
						"color2" : [ 0.290196, 0.309804, 0.301961, 1.0 ],
						"angle" : 270.0,
						"proportion" : 0.39,
						"autogradient" : 0
					}

				}
,
				"parentstyle" : "",
				"multi" : 0
			}
, 			{
				"name" : "s_161006_G!",
				"message" : 				{
					"bgfillcolor" : 					{
						"type" : "color",
						"color" : [ 0.32549, 0.345098, 0.372549, 0.79 ],
						"color1" : [ 0.376471, 0.384314, 0.4, 1.0 ],
						"color2" : [ 0.290196, 0.309804, 0.301961, 1.0 ],
						"angle" : 270.0,
						"proportion" : 0.39,
						"autogradient" : 0
					}

				}
,
				"comment" : 				{
					"textcolor" : [ 0.65098, 0.666667, 0.662745, 1.0 ]
				}
,
				"parentstyle" : "",
				"multi" : 1
			}
, 			{
				"name" : "simple-1",
				"parentstyle" : "simple",
				"multi" : 0
			}
, 			{
				"name" : "simple-2",
				"default" : 				{
					"bgfillcolor" : 					{
						"type" : "color",
						"color" : [ 0.32549, 0.345098, 0.372549, 0.71 ],
						"color1" : [ 0.376471, 0.384314, 0.4, 1.0 ],
						"color2" : [ 0.290196, 0.309804, 0.301961, 1.0 ],
						"angle" : 270.0,
						"proportion" : 0.39,
						"autogradient" : 0
					}
,
					"textcolor" : [ 0.65098, 0.666667, 0.662745, 1.0 ]
				}
,
				"parentstyle" : "default",
				"multi" : 0
			}
, 			{
				"name" : "texteditGold",
				"default" : 				{
					"textcolor_inverse" : [ 0.0, 0.0, 0.0, 1.0 ],
					"bgcolor" : [ 0.764706, 0.592157, 0.101961, 0.68 ]
				}
,
				"parentstyle" : "",
				"multi" : 0
			}
 ],
		"bgcolor" : [ 0.898039215686275, 0.898039215686275, 0.898039215686275, 0.0 ]
	}

}
