{
	"patcher" : 	{
		"fileversion" : 1,
		"appversion" : 		{
			"major" : 8,
			"minor" : 5,
			"revision" : 2,
			"architecture" : "x64",
			"modernui" : 1
		}
,
		"classnamespace" : "box",
		"rect" : [ -1386.0, 406.0, 695.0, 650.0 ],
		"bglocked" : 0,
		"openinpresentation" : 0,
		"default_fontsize" : 12.0,
		"default_fontface" : 0,
		"default_fontname" : "Arial",
		"gridonopen" : 1,
		"gridsize" : [ 15.0, 15.0 ],
		"gridsnaponopen" : 1,
		"objectsnaponopen" : 1,
		"statusbarvisible" : 2,
		"toolbarvisible" : 1,
		"lefttoolbarpinned" : 0,
		"toptoolbarpinned" : 0,
		"righttoolbarpinned" : 0,
		"bottomtoolbarpinned" : 0,
		"toolbars_unpinned_last_save" : 0,
		"tallnewobj" : 0,
		"boxanimatetime" : 200,
		"enablehscroll" : 1,
		"enablevscroll" : 1,
		"devicewidth" : 0.0,
		"description" : "",
		"digest" : "",
		"tags" : "",
		"style" : "",
		"subpatcher_template" : "",
		"assistshowspatchername" : 0,
		"boxes" : [ 			{
				"box" : 				{
					"id" : "obj-8",
					"maxclass" : "newobj",
					"numinlets" : 0,
					"numoutlets" : 1,
					"outlettype" : [ "" ],
					"patching_rect" : [ 132.0, 38.0, 29.0, 22.0 ],
					"text" : "r #7"
				}

			}
, 			{
				"box" : 				{
					"id" : "obj-248",
					"maxclass" : "newobj",
					"numinlets" : 2,
					"numoutlets" : 1,
					"outlettype" : [ "bang" ],
					"patching_rect" : [ 25.5, 239.157827854156494, 61.0, 22.0 ],
					"text" : "delay 100"
				}

			}
, 			{
				"box" : 				{
					"id" : "obj-249",
					"maxclass" : "newobj",
					"numinlets" : 1,
					"numoutlets" : 2,
					"outlettype" : [ "bang", "" ],
					"patching_rect" : [ 25.5, 213.0, 29.5, 22.0 ],
					"text" : "t b l"
				}

			}
, 			{
				"box" : 				{
					"id" : "obj-250",
					"maxclass" : "newobj",
					"numinlets" : 1,
					"numoutlets" : 0,
					"patching_rect" : [ 25.5, 266.0, 31.0, 22.0 ],
					"text" : "s #6"
				}

			}
, 			{
				"box" : 				{
					"id" : "obj-6",
					"maxclass" : "newobj",
					"numinlets" : 3,
					"numoutlets" : 1,
					"outlettype" : [ "" ],
					"patching_rect" : [ 36.0, 502.0, 273.0, 22.0 ],
					"text" : "sprintf \\\"UPDATE %s SET %s=? WHERE %s=? \\\""
				}

			}
, 			{
				"box" : 				{
					"id" : "obj-1",
					"maxclass" : "newobj",
					"numinlets" : 1,
					"numoutlets" : 3,
					"outlettype" : [ "", "", "" ],
					"patching_rect" : [ 36.0, 475.0, 273.0, 22.0 ],
					"text" : "t #2 #3 #4"
				}

			}
, 			{
				"box" : 				{
					"id" : "obj-13",
					"maxclass" : "message",
					"numinlets" : 2,
					"numoutlets" : 1,
					"outlettype" : [ "" ],
					"patching_rect" : [ 132.0, 68.0, 29.5, 22.0 ],
					"text" : "set"
				}

			}
, 			{
				"box" : 				{
					"id" : "obj-3",
					"maxclass" : "newobj",
					"numinlets" : 1,
					"numoutlets" : 1,
					"outlettype" : [ "" ],
					"patching_rect" : [ 57.0, 376.0, 31.0, 22.0 ],
					"text" : "v #5"
				}

			}
, 			{
				"box" : 				{
					"id" : "obj-2",
					"maxclass" : "newobj",
					"numinlets" : 1,
					"numoutlets" : 3,
					"outlettype" : [ "bang", "", "bang" ],
					"patching_rect" : [ 36.0, 348.0, 40.0, 22.0 ],
					"text" : "t b l b"
				}

			}
, 			{
				"box" : 				{
					"id" : "obj-12",
					"linecount" : 4,
					"maxclass" : "comment",
					"numinlets" : 1,
					"numoutlets" : 0,
					"patching_rect" : [ 183.0, 24.0, 433.0, 62.0 ],
					"text" : "Inlets & Outlets:\nFirst set of inlets and outlets connect to a textedit object\nSecond inlet is that value to set the textedit (this will NOT update the database).\nThird inlet is a clear inlet."
				}

			}
, 			{
				"box" : 				{
					"annotation" : "Inlets & Outlets:\nFirst set of inlets and outlets connect to a textedit object\nSecond inlet is that value to set the textedit (this will NOT update the database).\nThird inlet is a clear inlet.\n\nArguments:\n1) Unique update Name (arbitrary) will not affect anything\n2) Table name\n3) Update Column=?\n4) Where column name =?\n5) Value for Where column name = ?. the ? variable.\n    Name of unique variable (must be stored in a v object)\n6) Refresh Recieve Object Name\n7) Clear Recieve Object Name",
					"comment" : "",
					"hint" : "Inlets & Outlets:\nFirst set of inlets and outlets connect to a textedit object\nSecond inlet is that value to set the textedit (this will NOT update the database).\nThird inlet is a clear inlet.\n\nArguments:\n1) Unique update Name (arbitrary) will not affect anything\n2) Table name\n3) Update Column=?\n4) Where column name =?\n5) Value for Where column name = ?. the ? variable.\n    Name of unique variable (must be stored in a v object)\n6) Refresh Recieve Object Name\n7) Clear Recieve Object Name",
					"id" : "obj-10",
					"index" : 0,
					"maxclass" : "inlet",
					"numinlets" : 0,
					"numoutlets" : 1,
					"outlettype" : [ "" ],
					"patching_rect" : [ 36.0, 38.0, 30.0, 30.0 ]
				}

			}
, 			{
				"box" : 				{
					"id" : "obj-9",
					"linecount" : 9,
					"maxclass" : "comment",
					"numinlets" : 1,
					"numoutlets" : 0,
					"patching_rect" : [ 217.0, 107.0, 399.0, 131.0 ],
					"text" : "Arguments:\n1) Unique update Name (arbitrary) will not affect anything\n2) Table name\n3) Update Column=?\n4) Where column name =?\n5) Value for Where column name = ?. the ? variable.\n    Name of unique variable (must be stored in a v object)\n6) Refresh Recieve Object Name\n7) Clear Recieve Object Name"
				}

			}
, 			{
				"box" : 				{
					"annotation" : "Inlets & Outlets:\nFirst set of inlets and outlets connect to a textedit object\nSecond inlet is that value to set the textedit (this will NOT update the database).\nThird inlet is a clear inlet.\n\nArguments:\n1) Unique update Name (arbitrary) will not affect anything\n2) Table name\n3) Update Column=?\n4) Where column name =?\n5) Value for Where column name = ?. the ? variable.\n    Name of unique variable (must be stored in a v object)\n6) Refresh Recieve Object Name\n7) Clear Recieve Object Name",
					"comment" : "",
					"hint" : "Inlets & Outlets:\nFirst set of inlets and outlets connect to a textedit object\nSecond inlet is that value to set the textedit (this will NOT update the database).\nThird inlet is a clear inlet.\n\nArguments:\n1) Unique update Name (arbitrary) will not affect anything\n2) Table name\n3) Update Column=?\n4) Where column name =?\n5) Value for Where column name = ?. the ? variable.\n    Name of unique variable (must be stored in a v object)\n6) Refresh Recieve Object Name\n7) Clear Recieve Object Name",
					"id" : "obj-7",
					"index" : 0,
					"maxclass" : "inlet",
					"numinlets" : 0,
					"numoutlets" : 1,
					"outlettype" : [ "" ],
					"patching_rect" : [ 17.0, 160.0, 30.0, 30.0 ]
				}

			}
, 			{
				"box" : 				{
					"annotation" : "Inlets & Outlets:\nFirst set of inlets and outlets connect to a textedit object\nSecond inlet is that value to set the textedit (this will NOT update the database).\nThird inlet is a clear inlet.\n\nArguments:\n1) Unique update Name (arbitrary) will not affect anything\n2) Table name\n3) Update Column=?\n4) Where column name =?\n5) Value for Where column name = ?. the ? variable.\n    Name of unique variable (must be stored in a v object)\n6) Refresh Recieve Object Name\n7) Clear Recieve Object Name",
					"comment" : "",
					"hint" : "Inlets & Outlets:\nFirst set of inlets and outlets connect to a textedit object\nSecond inlet is that value to set the textedit (this will NOT update the database).\nThird inlet is a clear inlet.\n\nArguments:\n1) Unique update Name (arbitrary) will not affect anything\n2) Table name\n3) Update Column=?\n4) Where column name =?\n5) Value for Where column name = ?. the ? variable.\n    Name of unique variable (must be stored in a v object)\n6) Refresh Recieve Object Name\n7) Clear Recieve Object Name",
					"id" : "obj-5",
					"index" : 0,
					"maxclass" : "outlet",
					"numinlets" : 1,
					"numoutlets" : 0,
					"patching_rect" : [ 49.0, 160.0, 30.0, 30.0 ]
				}

			}
, 			{
				"box" : 				{
					"id" : "obj-66",
					"maxclass" : "newobj",
					"numinlets" : 1,
					"numoutlets" : 1,
					"outlettype" : [ "" ],
					"patching_rect" : [ 36.0, 324.0, 60.0, 22.0 ],
					"text" : "tosymbol"
				}

			}
, 			{
				"box" : 				{
					"id" : "obj-94",
					"maxclass" : "newobj",
					"numinlets" : 2,
					"numoutlets" : 2,
					"outlettype" : [ "", "" ],
					"patching_rect" : [ 36.0, 296.0, 66.0, 22.0 ],
					"text" : "route text"
				}

			}
, 			{
				"box" : 				{
					"id" : "obj-63",
					"maxclass" : "newobj",
					"numinlets" : 1,
					"numoutlets" : 1,
					"outlettype" : [ "" ],
					"patching_rect" : [ 36.0, 74.0, 73.0, 22.0 ],
					"text" : "fromsymbol"
				}

			}
, 			{
				"box" : 				{
					"id" : "obj-59",
					"maxclass" : "newobj",
					"numinlets" : 2,
					"numoutlets" : 2,
					"outlettype" : [ "", "" ],
					"patching_rect" : [ 46.5, 412.0, 49.333333333333371, 22.0 ],
					"text" : "zl join"
				}

			}
, 			{
				"box" : 				{
					"id" : "obj-56",
					"maxclass" : "newobj",
					"numinlets" : 2,
					"numoutlets" : 2,
					"outlettype" : [ "", "" ],
					"patching_rect" : [ 36.0, 531.0, 235.0, 22.0 ],
					"text" : "Mysql_User #1_MySQL_Update"
				}

			}
, 			{
				"box" : 				{
					"id" : "obj-50",
					"maxclass" : "newobj",
					"numinlets" : 1,
					"numoutlets" : 1,
					"outlettype" : [ "" ],
					"patching_rect" : [ 36.0, 98.0, 100.0, 22.0 ],
					"text" : "prepend set"
				}

			}
, 			{
				"box" : 				{
					"bgcolor" : [ 0.0, 0.0, 0.0, 0.76 ],
					"id" : "obj-51",
					"maxclass" : "textedit",
					"numinlets" : 1,
					"numoutlets" : 4,
					"outlettype" : [ "", "int", "", "" ],
					"parameter_enable" : 0,
					"patching_rect" : [ 36.0, 129.0, 159.0, 22.0 ],
					"presentation" : 1,
					"presentation_rect" : [ 120.0, 665.0, 722.0, 22.0 ],
					"rounded" : 0.0,
					"textcolor" : [ 0.749019607843137, 0.749019607843137, 0.749019607843137, 1.0 ]
				}

			}
, 			{
				"box" : 				{
					"id" : "obj-4",
					"maxclass" : "comment",
					"numinlets" : 1,
					"numoutlets" : 0,
					"patching_rect" : [ 4.0, 5.0, 90.0, 20.0 ],
					"text" : "Edit Parameter"
				}

			}
 ],
		"lines" : [ 			{
				"patchline" : 				{
					"destination" : [ "obj-6", 2 ],
					"source" : [ "obj-1", 2 ]
				}

			}
, 			{
				"patchline" : 				{
					"destination" : [ "obj-6", 1 ],
					"source" : [ "obj-1", 1 ]
				}

			}
, 			{
				"patchline" : 				{
					"destination" : [ "obj-6", 0 ],
					"source" : [ "obj-1", 0 ]
				}

			}
, 			{
				"patchline" : 				{
					"destination" : [ "obj-63", 0 ],
					"source" : [ "obj-10", 0 ]
				}

			}
, 			{
				"patchline" : 				{
					"destination" : [ "obj-51", 0 ],
					"source" : [ "obj-13", 0 ]
				}

			}
, 			{
				"patchline" : 				{
					"destination" : [ "obj-1", 0 ],
					"source" : [ "obj-2", 0 ]
				}

			}
, 			{
				"patchline" : 				{
					"destination" : [ "obj-3", 0 ],
					"source" : [ "obj-2", 2 ]
				}

			}
, 			{
				"patchline" : 				{
					"destination" : [ "obj-59", 0 ],
					"source" : [ "obj-2", 1 ]
				}

			}
, 			{
				"patchline" : 				{
					"destination" : [ "obj-250", 0 ],
					"source" : [ "obj-248", 0 ]
				}

			}
, 			{
				"patchline" : 				{
					"destination" : [ "obj-248", 0 ],
					"source" : [ "obj-249", 0 ]
				}

			}
, 			{
				"patchline" : 				{
					"destination" : [ "obj-94", 0 ],
					"source" : [ "obj-249", 1 ]
				}

			}
, 			{
				"patchline" : 				{
					"destination" : [ "obj-59", 1 ],
					"source" : [ "obj-3", 0 ]
				}

			}
, 			{
				"patchline" : 				{
					"destination" : [ "obj-5", 0 ],
					"midpoints" : [ 45.5, 125.0, 58.0, 125.0, 58.0, 143.0, 58.5, 143.0 ],
					"order" : 0,
					"source" : [ "obj-50", 0 ]
				}

			}
, 			{
				"patchline" : 				{
					"destination" : [ "obj-51", 0 ],
					"order" : 1,
					"source" : [ "obj-50", 0 ]
				}

			}
, 			{
				"patchline" : 				{
					"destination" : [ "obj-249", 0 ],
					"midpoints" : [ 45.5, 147.0, 35.0, 147.0 ],
					"source" : [ "obj-51", 0 ]
				}

			}
, 			{
				"patchline" : 				{
					"destination" : [ "obj-56", 1 ],
					"midpoints" : [ 56.0, 468.0, 263.0, 468.0, 263.0, 470.0, 261.5, 470.0 ],
					"source" : [ "obj-59", 0 ]
				}

			}
, 			{
				"patchline" : 				{
					"destination" : [ "obj-56", 0 ],
					"source" : [ "obj-6", 0 ]
				}

			}
, 			{
				"patchline" : 				{
					"destination" : [ "obj-50", 0 ],
					"source" : [ "obj-63", 0 ]
				}

			}
, 			{
				"patchline" : 				{
					"destination" : [ "obj-2", 0 ],
					"midpoints" : [ 45.5, 344.0, 46.0, 344.0, 46.0, 350.0, 45.5, 350.0 ],
					"source" : [ "obj-66", 0 ]
				}

			}
, 			{
				"patchline" : 				{
					"destination" : [ "obj-249", 0 ],
					"source" : [ "obj-7", 0 ]
				}

			}
, 			{
				"patchline" : 				{
					"destination" : [ "obj-13", 0 ],
					"source" : [ "obj-8", 0 ]
				}

			}
, 			{
				"patchline" : 				{
					"destination" : [ "obj-66", 0 ],
					"midpoints" : [ 92.5, 320.0, 45.5, 320.0 ],
					"source" : [ "obj-94", 1 ]
				}

			}
, 			{
				"patchline" : 				{
					"destination" : [ "obj-66", 0 ],
					"source" : [ "obj-94", 0 ]
				}

			}
 ],
		"dependency_cache" : [ 			{
				"name" : "Mysql_User.maxpat",
				"bootpath" : "C:/ProgramData/Chuck/main/Modules/Taskbar/Maxpat",
				"patcherrelativepath" : ".",
				"type" : "JSON",
				"implicit" : 1
			}
 ],
		"autosave" : 0
	}

}
